<?xml version="1.0" encoding="UTF-8" standalone="no"?>
<!-- Created with Inkscape (http://www.inkscape.org/) -->

<svg
   width="2048"
   height="2048"
   viewBox="0 0 2048 2048"
   version="1.1"
   id="svg1"
   inkscape:version="1.4.2 (ebf0e940, 2025-05-08)"
   sodipodi:docname="reactor-shaft.map.svg"
   xmlns:inkscape="http://www.inkscape.org/namespaces/inkscape"
   xmlns:sodipodi="http://sodipodi.sourceforge.net/DTD/sodipodi-0.dtd"
   xmlns:xlink="http://www.w3.org/1999/xlink"
   xmlns="http://www.w3.org/2000/svg"
   xmlns:svg="http://www.w3.org/2000/svg">
  <sodipodi:namedview
     id="namedview1"
     pagecolor="#ffffff"
     bordercolor="#000000"
     borderopacity="0.25"
     inkscape:showpageshadow="2"
     inkscape:pageopacity="0.0"
     inkscape:pagecheckerboard="0"
     inkscape:deskcolor="#d1d1d1"
     inkscape:document-units="mm"
     inkscape:zoom="0.67382812"
     inkscape:cx="959.44348"
     inkscape:cy="1466.2493"
     inkscape:window-width="1616"
     inkscape:window-height="887"
     inkscape:window-x="17"
     inkscape:window-y="135"
     inkscape:window-maximized="0"
     inkscape:current-layer="layer5"
     showgrid="false">
    <inkscape:grid
       id="grid1"
       units="px"
       originx="0"
       originy="0"
       spacingx="64"
       spacingy="64"
       empcolor="#0099e5"
       empopacity="0.30196078"
       color="#0099e5"
       opacity="0.14901961"
       empspacing="5"
       enabled="true"
       visible="false" />
  </sodipodi:namedview>
  <defs
     id="defs1">
    <linearGradient
       id="swatch5"
       inkscape:swatch="solid">
      <stop
         style="stop-color:#000000;stop-opacity:1;"
         offset="0"
         id="stop5" />
    </linearGradient>
    <linearGradient
       id="swatch4"
       inkscape:swatch="solid">
      <stop
         style="stop-color:#0000be;stop-opacity:1;"
         offset="0"
         id="stop4" />
    </linearGradient>
    <linearGradient
       inkscape:collect="always"
       xlink:href="#swatch4"
       id="linearGradient5"
       x1="380.31186"
       y1="1001.3739"
       x2="1709.5618"
       y2="1001.3739"
       gradientUnits="userSpaceOnUse" />
  </defs>
  <g
     inkscape:label="bounds"
     inkscape:groupmode="layer"
     id="layer1"
     style="display:inline"
     sodipodi:insensitive="true">
    <path
       style="fill:none;stroke:#000000;stroke-opacity:1"
       d="M 380.81185,1610.75 H 1709.0618 V 392.00004 l -624.25,2.75 -16.8275,695.73856 411.0037,-2.625 52.0319,410.4384 -251.3809,1.944 -5.4095,-192.4562 -106.5145,-47.2392 -80.0761,179.8202 -180.36954,47.0448 -206.45751,-4.6656 v -320 h -320 z"
       id="path1"
       sodipodi:nodetypes="cccccccccccccccc"
       inkscape:label="id:bounds_01" />
  </g>
  <g
     inkscape:groupmode="layer"
     id="layer8"
     inkscape:label="bounds_cam"
     style="display:inline;fill:none;stroke:#ff0000;stroke-opacity:1"
     sodipodi:insensitive="true">
    <path
       id="path1-49"
       style="display:inline;fill:none;stroke:#000000;stroke-opacity:1"
       inkscape:label="id:bounds_01"
       d="m 1022.3125,331 c -6.6302,274.64193 -13.2604,549.28385 -19.8906,823.9258 140.0638,-0.896 280.1276,-1.791 420.1914,-2.6875 11.9468,94.2091 23.8963,188.4179 35.8437,282.6269 -38.8587,0.2951 -77.7174,0.5854 -116.5761,0.8809 -1.6157,-56.694 -3.2276,-113.388 -4.8418,-170.082 -67.2748,-29.8503 -134.5495,-59.7006 -201.8243,-89.5508 -31.1677,70.0219 -62.3323,140.0453 -93.5019,210.0664 -47.30793,12.3522 -94.61705,24.6998 -141.92579,37.0488 -44.99155,-1.0131 -89.98311,-2.0257 -134.97461,-3.041 0,-107.1458 0,-214.2917 0,-321.4375 -149.33333,0 -298.66667,0 -448,0 0,192 0,384 0,576 485.41667,0 970.8333,0 1456.25,0 0,-449.0208 0,-898.04167 0,-1347.0625 -250.25,1.10417 -500.5,2.20833 -750.75,3.3125 z" />
  </g>
  <g
     inkscape:groupmode="layer"
     id="layer13"
     inkscape:label="fields"
     style="display:none"
     sodipodi:insensitive="true">
    <rect
       style="display:inline;fill:#ff6600;fill-opacity:1;stroke-width:1.88976"
       id="rect20"
       width="1788.5488"
       height="1686.5282"
       x="146.65463"
       y="162.59534"
       inkscape:label="id:star_field z=12bo depth=40bo density=8" />
  </g>
  <g
     inkscape:groupmode="layer"
     id="layer17"
     inkscape:label="depths"
     style="display:inline">
    <path
       style="display:inline;fill:url(#linearGradient5);stroke:#000000;stroke-opacity:1"
       d="M 380.81185,1610.75 H 1709.0618 V 392.00004 l -624.25,2.75 -16.8275,695.73856 411.0037,-2.625 52.0319,410.4384 -251.3809,1.944 -5.4095,-192.4562 -106.5145,-47.2392 -80.0761,179.8202 -180.36954,47.0448 -206.45751,-4.6656 v -320 h -320 z"
       id="path1-4"
       sodipodi:nodetypes="cccccccccccccccc"
       inkscape:label=" depth:reactor max=10bo material=graphite tess=24" />
    <path
       style="fill:#ff0000;fill-opacity:1;stroke-width:0.926189"
       d="m 468.01639,1256.4972 150.97564,-27.9585 -31.00358,29.6133 z"
       id="path9"
       sodipodi:nodetypes="cccc"
       inkscape:label=" depth:reactor max=10bo material=graphite tess=24" />
    <path
       style="fill:#ff0000;fill-opacity:1;stroke-width:1.15724"
       d="m 634.28218,1243.604 -30.43384,26.3005 33.69522,144.1438 23.98431,-120.917 z"
       id="path10"
       sodipodi:nodetypes="ccccc"
       inkscape:label=" depth:reactor max=10bo material=graphite tess=24" />
    <path
       style="display:inline;fill:#ff0000;fill-opacity:1;stroke-width:1.88976"
       d="m 588.0541,1277.6401 -115.58965,-0.7305 76.42161,85.6226 60.8013,1.2543 z"
       id="path11"
       sodipodi:nodetypes="ccccc"
       inkscape:label="depth:reactor max=10bo material=graphite tess=24" />
    <path
       style="display:inline;fill:#ff0000;fill-opacity:1;stroke-width:0.676288"
       d="m 610.87306,1382.9639 -63.0474,-1.8343 66.80244,92.6026 9.94317,-45.5295 z"
       id="path12"
       sodipodi:nodetypes="ccccc"
       inkscape:label="depth:reactor max=10bo material=graphite tess=24" />
    <ellipse
       style="display:inline;fill:#ff0000;fill-opacity:1;stroke-width:0.500868"
       id="path15-8"
       cx="1590.884"
       cy="1200.9109"
       rx="27.09922"
       ry="28.693293"
       inkscape:label=" depth:reactor max=10bo material=graphite tess=24" />
    <path
       style="display:inline;fill:#ff0000;fill-opacity:1;stroke-width:1.88976"
       d="m 1113.2456,798.43529 37.6744,-318.61962 290.121,-7.97035 z"
       id="path16"
       sodipodi:nodetypes="cccc"
       inkscape:label=" depth:reactor max=10bo material=graphite tess=24" />
    <path
       style="display:inline;fill:#ff0000;fill-opacity:1;stroke-width:1.88976"
       d="m 1161.418,865.23089 394.3962,-383.82114 87.674,-4.78222 3.1881,197.66493 z"
       id="path17"
       inkscape:label=" depth:reactor max=10bo material=graphite tess=24"
       sodipodi:nodetypes="ccccc" />
    <circle
       style="display:inline;fill:#ff0000;fill-opacity:1;stroke-width:1.88976"
       id="path18"
       cx="1562.3854"
       cy="924.13379"
       r="132.30797"
       inkscape:label=" depth:reactor max=10bo material=graphite tess=24" />
    <path
       id="path20"
       style="fill:#ff0000;stroke-width:0.609715"
       d="m 761.98471,1586.7732 -4.81713,4.4925 -4.81714,-4.4925 v -63.228 l 4.81714,-4.4923 4.81713,4.4923 z"
       sodipodi:nodetypes="ccccccc"
       inkscape:label=" depth:reactor max=10bo material=graphite tess=24" />
    <path
       id="path20-9"
       style="display:inline;fill:#ff0000;stroke-width:0.609715"
       d="m 801.98471,1586.7732 -4.81713,4.4925 -4.81714,-4.4925 v -63.228 l 4.81714,-4.4923 4.81713,4.4923 z"
       sodipodi:nodetypes="ccccccc"
       inkscape:label=" depth:reactor max=10bo material=graphite tess=24" />
    <path
       id="path20-9-4"
       style="display:inline;fill:#ff0000;stroke-width:0.609715"
       d="m 841.98471,1586.7732 -4.81713,4.4925 -4.81714,-4.4925 v -63.228 l 4.81714,-4.4923 4.81713,4.4923 z"
       sodipodi:nodetypes="ccccccc"
       inkscape:label=" depth:reactor max=10bo material=graphite tess=24" />
    <path
       id="path20-9-4-7"
       style="display:inline;fill:#ff0000;stroke-width:0.609715"
       d="m 881.98471,1586.7732 -4.81713,4.4925 -4.81714,-4.4925 v -63.228 l 4.81714,-4.4923 4.81713,4.4923 z"
       sodipodi:nodetypes="ccccccc"
       inkscape:label=" depth:reactor max=10bo material=graphite tess=24" />
    <path
       id="path20-9-4-7-5"
       style="display:inline;fill:#ff0000;stroke-width:0.609715"
       d="m 921.98471,1586.7732 -4.81713,4.4925 -4.81714,-4.4925 v -63.228 l 4.81714,-4.4923 4.81713,4.4923 z"
       sodipodi:nodetypes="ccccccc"
       inkscape:label=" depth:reactor max=10bo material=graphite tess=24" />
    <path
       id="path20-9-4-7-5-3"
       style="display:inline;fill:#ff0000;stroke-width:0.609715"
       d="m 961.9847,1586.7732 -4.8171,4.4925 -4.8172,-4.4925 v -63.228 l 4.8172,-4.4923 4.8171,4.4923 z"
       sodipodi:nodetypes="ccccccc"
       inkscape:label=" depth:reactor max=10bo material=graphite tess=24" />
    <path
       id="path20-9-4-7-5-3-7"
       style="display:inline;fill:#ff0000;stroke-width:0.609715"
       d="m 1001.9847,1586.7732 -4.8171,4.4925 -4.8172,-4.4925 v -63.228 l 4.8172,-4.4923 4.8171,4.4923 z"
       sodipodi:nodetypes="ccccccc"
       inkscape:label=" depth:reactor max=10bo material=graphite tess=24" />
    <path
       id="path20-9-4-7-5-3-7-2"
       style="display:inline;fill:#ff0000;stroke-width:0.609715"
       d="m 1041.9847,1586.7732 -4.8171,4.4925 -4.8172,-4.4925 v -63.228 l 4.8172,-4.4923 4.8171,4.4923 z"
       sodipodi:nodetypes="ccccccc"
       inkscape:label=" depth:reactor max=10bo material=graphite tess=24" />
    <path
       id="path20-9-4-7-5-3-7-2-7"
       style="display:inline;fill:#ff0000;stroke-width:0.609715"
       d="m 1081.9847,1586.7732 -4.8171,4.4925 -4.8172,-4.4925 v -63.228 l 4.8172,-4.4923 4.8171,4.4923 z"
       sodipodi:nodetypes="ccccccc"
       inkscape:label=" depth:reactor max=10bo material=graphite tess=24" />
    <path
       id="path20-9-4-7-5-3-7-2-7-9"
       style="display:inline;fill:#ff0000;stroke-width:0.609715"
       d="m 1121.9847,1586.7732 -4.8171,4.4925 -4.8172,-4.4925 v -63.228 l 4.8172,-4.4923 4.8171,4.4923 z"
       sodipodi:nodetypes="ccccccc"
       inkscape:label=" depth:reactor max=10bo material=graphite tess=24" />
    <path
       id="path20-9-4-7-5-3-7-2-7-9-4"
       style="display:inline;fill:#ff0000;stroke-width:0.609715"
       d="m 1161.9847,1586.7732 -4.8171,4.4925 -4.8172,-4.4925 v -63.228 l 4.8172,-4.4923 4.8171,4.4923 z"
       sodipodi:nodetypes="ccccccc"
       inkscape:label=" depth:reactor max=10bo material=graphite tess=24" />
    <path
       id="path20-9-4-7-5-3-7-2-7-9-4-9"
       style="display:inline;fill:#ff0000;stroke-width:0.609715"
       d="m 1201.9847,1586.7732 -4.8171,4.4925 -4.8172,-4.4925 v -63.228 l 4.8172,-4.4923 4.8171,4.4923 z"
       sodipodi:nodetypes="ccccccc"
       inkscape:label=" depth:reactor max=10bo material=graphite tess=24" />
  </g>
  <g
     inkscape:groupmode="layer"
     id="layer18"
     inkscape:label="art"
     style="display:inline"
     sodipodi:insensitive="true">
    <path
       id="rect1"
       style="fill:#272727;fill-opacity:1;stroke:#5f5f5f;stroke-width:1.88976"
       inkscape:label="id:art_panel z=0bo material=flat color=#272727 opacity=1"
       d="M 31.214844,22.171875 V 2013.0547 H 2019.5898 V 22.171875 Z M 1709.0625,392 v 1218.75 h -1328.25 v -448 h 320 v 320 l 206.45703,4.666 180.36917,-47.0449 80.0761,-179.8203 106.5157,47.2383 5.4082,192.457 251.3808,-1.9434 -52.0312,-410.4394 -411.0039,2.625 16.8281,-695.7383 z" />
  </g>
  <g
     inkscape:groupmode="layer"
     id="layer4"
     inkscape:label="props"
     style="display:inline"
     sodipodi:insensitive="true">
    <rect
       style="fill:#d4aa00;stroke-width:7.29432"
       id="rect2"
       width="41"
       height="80"
       x="515.16003"
       y="1530.8636"
       inkscape:label="id: plinth_01  z:orb,  anchor:bottom" />
  </g>
  <g
     inkscape:groupmode="layer"
     id="layer5"
     inkscape:label="enemies"
     sodipodi:insensitive="true">
    <circle
       style="fill:#ff00ff;stroke-width:1.88976"
       id="path4"
       cx="1241.1562"
       cy="1340.2633"
       r="13.219213"
       inkscape:label="id:gnats_01 enemy:gnat-swarm z:orb" />
  </g>
  <g
     inkscape:groupmode="layer"
     id="layer2"
     inkscape:label="spawns"
     style="display:inline"
     sodipodi:insensitive="true">
    <circle
       style="fill:#ff0000;stroke:none;stroke-width:1.48875"
       id="path2-9"
       cx="535.66003"
       cy="1480.7118"
       r="18.5"
       inkscape:label="id: spawn_01, z:orb" />
  </g>
  <g
     inkscape:groupmode="layer"
     id="layer3"
     inkscape:label="cameras"
     style="display:none"
     sodipodi:insensitive="true">
    <circle
       style="fill:#000000;stroke-width:0.680124"
       id="path3"
       cx="1276.8119"
       cy="1076.2188"
       r="5"
       inkscape:label="id:camera_anchor_01" />
  </g>
  <g
     inkscape:groupmode="layer"
     id="layer9"
     inkscape:label="globes"
     style="display:inline"
     sodipodi:insensitive="true">
    <circle
       style="fill:#0000ff;stroke:none;stroke-width:0.201182"
       id="path2-9-6"
       cx="540.31189"
       cy="1315.25"
       r="2.5"
       inkscape:label="id: globe_02, z:orb" />
    <circle
       style="display:inline;fill:#0000ff;stroke:none;stroke-width:0.201182"
       id="path2-9-6-7"
       cx="1582.3119"
       cy="1535.25"
       r="2.5"
       inkscape:label="id: globe_01, z:orb" />
  </g>
  <g
     inkscape:groupmode="layer"
     id="layer7"
     inkscape:label="orb: z=4BO"
     style="display:inline"
     sodipodi:insensitive="true" />
</svg>
